<svg xmlns="http://www.w3.org/2000/svg" width="128" height="128" viewBox="0 0 128 128" version="1.1"><path d="M 41.894 29.791 C 31.111 35.681, 21.548 41.118, 20.644 41.872 C 19.216 43.065, 19 45.963, 19 63.967 C 19 82.457, 19.189 84.854, 20.750 86.211 C 24.147 89.164, 61.828 109, 64.040 109 C 66.270 109, 103.910 89.164, 107.250 86.228 C 108.811 84.856, 109 82.452, 109 64 C 109 45.548, 108.811 43.144, 107.250 41.772 C 103.715 38.665, 66.206 19.001, 63.891 19.041 C 62.576 19.064, 52.677 23.902, 41.894 29.791 M 48.500 35.315 C 40.250 39.817, 32.892 43.892, 32.150 44.371 C 31.200 44.984, 35.715 47.898, 47.390 54.207 L 63.979 63.172 80.406 54.355 C 89.440 49.505, 96.643 45.232, 96.413 44.859 C 95.997 44.187, 64.395 26.940, 63.806 27.065 C 63.638 27.100, 56.750 30.813, 48.500 35.315 M 27 64.400 L 27 75.801 37.484 70.150 C 43.250 67.043, 47.968 64.275, 47.968 64 C 47.969 63.466, 28.580 53, 27.589 53 C 27.265 53, 27 58.130, 27 64.400 M 89.767 58.285 C 84.413 61.153, 80.033 63.725, 80.032 64 C 80.031 64.534, 99.420 75, 100.411 75 C 100.735 75, 101 70.050, 101 64 C 101 57.950, 100.662 53.016, 100.250 53.035 C 99.838 53.054, 95.120 55.416, 89.767 58.285 M 43.114 75.996 C 30.981 82.638, 30.777 82.806, 33.114 84.248 C 34.426 85.057, 41.898 89.173, 49.718 93.394 L 63.935 101.068 80.439 92.284 C 89.517 87.453, 96.953 83.275, 96.964 83 C 96.988 82.425, 73.381 69.658, 71.428 69.190 C 70.717 69.019, 68.754 69.593, 67.067 70.465 C 64.306 71.893, 63.706 71.899, 61.050 70.526 C 59.427 69.687, 57.514 69.049, 56.800 69.108 C 56.085 69.168, 49.926 72.267, 43.114 75.996" stroke="none" fill="#fcf7f7" fill-rule="evenodd"/><path d="M 5.110 1.396 C 0.016 4.219, 0.073 3.514, 0.035 63.703 C 0.009 105.214, 0.312 120.591, 1.195 122.528 C 3.711 128.050, 3.142 128, 63.903 128 C 104.202 128, 120.619 127.675, 122.447 126.842 C 123.845 126.205, 125.891 124.154, 126.994 122.285 C 128.938 118.991, 129 117.141, 129 62.384 C 129 27.893, 128.638 6.105, 128.072 6.456 C 127.562 6.771, 126.855 6.118, 126.501 5.004 C 124.932 0.058, 124.164 -0.003, 63.800 0.035 C 18.990 0.064, 7.012 0.341, 5.110 1.396 M 0.468 64 C 0.468 95.625, 0.595 108.562, 0.749 92.750 C 0.904 76.937, 0.904 51.062, 0.749 35.250 C 0.595 19.437, 0.468 32.375, 0.468 64 M 41.894 29.791 C 31.111 35.681, 21.548 41.118, 20.644 41.872 C 19.216 43.065, 19 45.963, 19 63.967 C 19 82.457, 19.189 84.854, 20.750 86.211 C 24.147 89.164, 61.828 109, 64.040 109 C 66.270 109, 103.910 89.164, 107.250 86.228 C 108.811 84.856, 109 82.452, 109 64 C 109 45.548, 108.811 43.144, 107.250 41.772 C 103.715 38.665, 66.206 19.001, 63.891 19.041 C 62.576 19.064, 52.677 23.902, 41.894 29.791 M 48.500 35.315 C 40.250 39.817, 32.892 43.892, 32.150 44.371 C 31.200 44.984, 35.715 47.898, 47.390 54.207 L 63.979 63.172 80.406 54.355 C 89.440 49.505, 96.643 45.232, 96.413 44.859 C 95.997 44.187, 64.395 26.940, 63.806 27.065 C 63.638 27.100, 56.750 30.813, 48.500 35.315 M 27 64.400 L 27 75.801 37.484 70.150 C 43.250 67.043, 47.968 64.275, 47.968 64 C 47.969 63.466, 28.580 53, 27.589 53 C 27.265 53, 27 58.130, 27 64.400 M 89.767 58.285 C 84.413 61.153, 80.033 63.725, 80.032 64 C 80.031 64.534, 99.420 75, 100.411 75 C 100.735 75, 101 70.050, 101 64 C 101 57.950, 100.662 53.016, 100.250 53.035 C 99.838 53.054, 95.120 55.416, 89.767 58.285 M 43.114 75.996 C 30.981 82.638, 30.777 82.806, 33.114 84.248 C 34.426 85.057, 41.898 89.173, 49.718 93.394 L 63.935 101.068 80.439 92.284 C 89.517 87.453, 96.953 83.275, 96.964 83 C 96.988 82.425, 73.381 69.658, 71.428 69.190 C 70.717 69.019, 68.754 69.593, 67.067 70.465 C 64.306 71.893, 63.706 71.899, 61.050 70.526 C 59.427 69.687, 57.514 69.049, 56.800 69.108 C 56.085 69.168, 49.926 72.267, 43.114 75.996" stroke="none" fill="#fc0505" fill-rule="evenodd"/></svg>